<?xml version="1.0" encoding="UTF-8"?>
<!DOCTYPE svg PUBLIC "-//W3C//DTD SVG 1.1//EN" "http://www.w3.org/Graphics/SVG/1.1/DTD/svg11.dtd">
<!-- Creator: CorelDRAW 2018 (64 Bit Versão de avaliação) -->
<svg xmlns="http://www.w3.org/2000/svg" xml:space="preserve" width="616px" height="544px" version="1.1" style="shape-rendering:geometricPrecision; text-rendering:geometricPrecision; image-rendering:optimizeQuality; fill-rule:evenodd; clip-rule:evenodd"
viewBox="0 0 161.85 143.12"
 xmlns:xlink="http://www.w3.org/1999/xlink">
 <defs>
  <style type="text/css">
   <![CDATA[
    .str0 {stroke:#373435;stroke-width:0.62;stroke-miterlimit:22.9256}
    .fil0 {fill:none}
   ]]>
  </style>
 </defs>
 <g id="Camada_x0020_1">
  <metadata id="CorelCorpID_0Corel-Layer"/>
  <path class="fil0 str0" d="M121.85 124.14c2.87,0 5.55,-0.06 7.88,-0.16 9.24,-0.25 22.6,-0.45 28.63,-6.94 5.24,-5.64 3.26,-11.3 -0.55,-16.79 -14.21,-20.48 -44.09,-20.48 -61.11,-10.32 7.66,4.04 14.52,9.79 19.88,17.51 3.8,5.48 6.38,11.08 5.27,16.7z"/>
  <path class="fil0 str0" d="M139.07 65.9c13.13,-23.57 -2.76,-45.71 -23.78,-38.94 -12.7,4.1 -18.29,17.37 -12.81,33.14 4.63,13.32 11,17.11 17.89,17.62 6.11,0.45 12.62,-0.91 18.7,-11.82z"/>
  <path class="fil0 str0" d="M5.94 108.1c-6.22,6.38 -8.75,18.63 0.13,25.23 12.62,9.37 45.98,10.03 64.59,9.24 13.67,-0.38 33.45,-0.66 42.39,-10.28 7.76,-8.35 4.82,-16.73 -0.82,-24.85 -26.96,-38.87 -92.04,-27.91 -106.29,0.66z"/>
  <path class="fil0 str0" d="M84.03 59.79c19.44,-34.89 -4.1,-67.68 -35.21,-57.65 -18.81,6.07 -27.08,25.71 -18.96,49.07 6.85,19.71 16.28,25.33 26.48,26.08 9.04,0.67 18.69,-1.34 27.69,-17.5z"/>
 </g>
</svg>
